<svg width="1920" height="130" viewBox="0 0 1920 130" fill="none" xmlns="http://www.w3.org/2000/svg">
<path d="M784.27 70.371C783.556 70.371 782.884 70.238 782.254 69.972C781.624 69.7013 781.071 69.328 780.595 68.852C780.119 68.376 779.746 67.823 779.475 67.193C779.205 66.563 779.069 65.8887 779.069 65.17C779.069 64.4513 779.205 63.777 779.475 63.147C779.746 62.517 780.119 61.964 780.595 61.488C781.071 61.012 781.624 60.641 782.254 60.375C782.884 60.1043 783.556 59.969 784.27 59.969C784.994 59.969 785.668 60.1043 786.293 60.375C786.923 60.641 787.476 61.012 787.952 61.488C788.428 61.964 788.802 62.517 789.072 63.147C789.343 63.777 789.478 64.4513 789.478 65.17C789.478 65.8887 789.343 66.563 789.072 67.193C788.802 67.823 788.428 68.376 787.952 68.852C787.476 69.328 786.923 69.7013 786.293 69.972C785.668 70.238 784.994 70.371 784.27 70.371ZM784.333 68.117C783.909 68.117 783.528 68.0447 783.192 67.9C782.856 67.7553 782.562 67.5243 782.31 67.207C782.068 66.899 781.9 66.5677 781.806 66.213C781.718 65.8583 781.673 65.5037 781.673 65.149C781.678 64.785 781.727 64.428 781.82 64.078C781.918 63.728 782.082 63.4083 782.31 63.119C782.562 62.8063 782.859 62.5753 783.199 62.426C783.54 62.2767 783.932 62.202 784.375 62.202C784.627 62.202 784.865 62.23 785.089 62.286C785.313 62.3373 785.535 62.4283 785.754 62.559C785.978 62.699 786.177 62.874 786.349 63.084C786.522 63.294 786.646 63.5367 786.72 63.812L785.859 64.071C785.803 63.9263 785.724 63.7863 785.621 63.651C785.519 63.5157 785.4 63.399 785.264 63.301C785.134 63.2077 784.987 63.14 784.823 63.098C784.665 63.0513 784.504 63.028 784.34 63.028C784.07 63.028 783.822 63.084 783.598 63.196C783.374 63.3033 783.183 63.455 783.024 63.651C782.866 63.8563 782.756 64.092 782.695 64.358C782.635 64.6193 782.604 64.8807 782.604 65.142C782.604 65.4267 782.637 65.702 782.702 65.968C782.772 66.234 782.88 66.465 783.024 66.661C783.174 66.8663 783.36 67.0227 783.584 67.13C783.813 67.2373 784.065 67.291 784.34 67.291C784.704 67.291 785.017 67.2023 785.278 67.025C785.414 66.927 785.526 66.8173 785.614 66.696C785.703 66.5747 785.778 66.4393 785.838 66.29L786.72 66.528C786.618 66.794 786.487 67.025 786.328 67.221C786.17 67.417 786.004 67.5757 785.831 67.697C785.621 67.837 785.395 67.942 785.152 68.012C784.914 68.082 784.641 68.117 784.333 68.117ZM784.27 69.37C784.854 69.37 785.397 69.2627 785.901 69.048C786.405 68.8287 786.849 68.5277 787.231 68.145C787.619 67.7577 787.92 67.3097 788.134 66.801C788.354 66.2877 788.463 65.7417 788.463 65.163C788.463 64.5797 788.354 64.036 788.134 63.532C787.92 63.028 787.619 62.5847 787.231 62.202C786.849 61.8147 786.405 61.5137 785.901 61.299C785.397 61.0797 784.854 60.97 784.27 60.97C783.692 60.97 783.146 61.0797 782.632 61.299C782.124 61.5137 781.676 61.8147 781.288 62.202C780.906 62.5847 780.605 63.028 780.385 63.532C780.171 64.036 780.063 64.5797 780.063 65.163C780.063 65.7417 780.171 66.2877 780.385 66.801C780.605 67.3097 780.906 67.7577 781.288 68.145C781.676 68.5277 782.124 68.8287 782.632 69.048C783.146 69.2627 783.692 69.37 784.27 69.37ZM793.404 69.993L793.411 69.055L797.968 64.939C798.36 64.5843 798.619 64.2483 798.745 63.931C798.876 63.609 798.941 63.273 798.941 62.923C798.941 62.5077 798.843 62.132 798.647 61.796C798.451 61.46 798.187 61.194 797.856 60.998C797.525 60.7973 797.154 60.697 796.743 60.697C796.314 60.697 795.931 60.7997 795.595 61.005C795.259 61.2103 794.993 61.481 794.797 61.817C794.606 62.153 794.512 62.5193 794.517 62.916H793.467C793.467 62.3047 793.612 61.7563 793.901 61.271C794.19 60.7857 794.582 60.4053 795.077 60.13C795.572 59.85 796.132 59.71 796.757 59.71C797.368 59.71 797.917 59.8547 798.402 60.144C798.892 60.4287 799.277 60.816 799.557 61.306C799.842 61.7913 799.984 62.3327 799.984 62.93C799.984 63.35 799.933 63.721 799.83 64.043C799.732 64.3603 799.576 64.6567 799.361 64.932C799.151 65.2027 798.883 65.4827 798.556 65.772L794.51 69.426L794.349 69.006H799.984V69.993H793.404ZM804.958 70.21C804.338 70.21 803.778 70.0653 803.278 69.776C802.784 69.4867 802.392 69.0947 802.102 68.6C801.813 68.1007 801.668 67.5407 801.668 66.92V63C801.668 62.3793 801.813 61.8217 802.102 61.327C802.392 60.8277 802.784 60.4333 803.278 60.144C803.778 59.8547 804.338 59.71 804.958 59.71C805.579 59.71 806.137 59.8547 806.631 60.144C807.131 60.4333 807.525 60.8277 807.814 61.327C808.104 61.8217 808.248 62.3793 808.248 63V66.92C808.248 67.5407 808.104 68.1007 807.814 68.6C807.525 69.0947 807.131 69.4867 806.631 69.776C806.137 70.0653 805.579 70.21 804.958 70.21ZM804.958 69.216C805.374 69.216 805.752 69.1157 806.092 68.915C806.433 68.7097 806.704 68.4367 806.904 68.096C807.105 67.7553 807.205 67.3797 807.205 66.969V62.951C807.205 62.5357 807.105 62.1577 806.904 61.817C806.704 61.4763 806.433 61.2057 806.092 61.005C805.752 60.7997 805.374 60.697 804.958 60.697C804.543 60.697 804.165 60.7997 803.824 61.005C803.484 61.2057 803.213 61.4763 803.012 61.817C802.812 62.1577 802.711 62.5357 802.711 62.951V66.969C802.711 67.3797 802.812 67.7553 803.012 68.096C803.213 68.4367 803.484 68.7097 803.824 68.915C804.165 69.1157 804.543 69.216 804.958 69.216ZM809.933 69.993L809.94 69.055L814.497 64.939C814.889 64.5843 815.148 64.2483 815.274 63.931C815.405 63.609 815.47 63.273 815.47 62.923C815.47 62.5077 815.372 62.132 815.176 61.796C814.98 61.46 814.717 61.194 814.385 60.998C814.054 60.7973 813.683 60.697 813.272 60.697C812.843 60.697 812.46 60.7997 812.124 61.005C811.788 61.2103 811.522 61.481 811.326 61.817C811.135 62.153 811.042 62.5193 811.046 62.916H809.996C809.996 62.3047 810.141 61.7563 810.43 61.271C810.72 60.7857 811.112 60.4053 811.606 60.13C812.101 59.85 812.661 59.71 813.286 59.71C813.898 59.71 814.446 59.8547 814.931 60.144C815.421 60.4287 815.806 60.816 816.086 61.306C816.371 61.7913 816.513 62.3327 816.513 62.93C816.513 63.35 816.462 63.721 816.359 64.043C816.261 64.3603 816.105 64.6567 815.89 64.932C815.68 65.2027 815.412 65.4827 815.085 65.772L811.039 69.426L810.878 69.006H816.513V69.993H809.933ZM822.362 70V68.047H817.644V67.067L821.018 59.92H822.173L818.799 67.067H822.362V64.127H823.398V67.067H824.497V68.047H823.398V70H822.362ZM832.485 70.21C831.78 70.21 831.146 70.0933 830.581 69.86C830.021 69.622 829.557 69.286 829.188 68.852C828.824 68.418 828.586 67.9023 828.474 67.305L829.524 67.13C829.692 67.7833 830.047 68.2967 830.588 68.67C831.129 69.0387 831.776 69.223 832.527 69.223C833.022 69.223 833.465 69.146 833.857 68.992C834.249 68.8333 834.557 68.6093 834.781 68.32C835.005 68.0307 835.117 67.6877 835.117 67.291C835.117 67.0297 835.07 66.808 834.977 66.626C834.884 66.4393 834.76 66.2853 834.606 66.164C834.452 66.0427 834.284 65.9423 834.102 65.863C833.92 65.779 833.743 65.7113 833.57 65.66L831.015 64.897C830.707 64.8083 830.422 64.6963 830.161 64.561C829.9 64.421 829.671 64.2553 829.475 64.064C829.284 63.868 829.134 63.6393 829.027 63.378C828.92 63.1167 828.866 62.818 828.866 62.482C828.866 61.9127 829.015 61.4203 829.314 61.005C829.613 60.5897 830.021 60.27 830.539 60.046C831.057 59.822 831.647 59.7123 832.31 59.717C832.982 59.717 833.582 59.836 834.109 60.074C834.641 60.312 835.08 60.6527 835.425 61.096C835.77 61.5347 835.999 62.055 836.111 62.657L835.033 62.853C834.963 62.4143 834.802 62.034 834.55 61.712C834.298 61.39 833.976 61.1427 833.584 60.97C833.197 60.7927 832.77 60.7017 832.303 60.697C831.85 60.697 831.447 60.774 831.092 60.928C830.742 61.0773 830.464 61.2827 830.259 61.544C830.054 61.8053 829.951 62.104 829.951 62.44C829.951 62.7807 830.044 63.0537 830.231 63.259C830.422 63.4643 830.656 63.6253 830.931 63.742C831.211 63.8587 831.482 63.9543 831.743 64.029L833.717 64.61C833.922 64.666 834.163 64.7477 834.438 64.855C834.718 64.9577 834.989 65.107 835.25 65.303C835.516 65.4943 835.735 65.7463 835.908 66.059C836.081 66.3717 836.167 66.7683 836.167 67.249C836.167 67.7157 836.074 68.1333 835.887 68.502C835.705 68.8707 835.446 69.181 835.11 69.433C834.779 69.685 834.389 69.8763 833.941 70.007C833.498 70.1423 833.012 70.21 832.485 70.21ZM837.752 61.005V59.85H838.781V61.005H837.752ZM837.752 70V62.44H838.781V70H837.752ZM841.019 70V59.71H842.048V70H841.019ZM844.287 61.005V59.85H845.316V61.005H844.287ZM844.287 70V62.44H845.316V70H844.287ZM850.551 70.21C849.79 70.21 849.146 70.0397 848.619 69.699C848.091 69.3583 847.69 68.8893 847.415 68.292C847.144 67.69 847.004 66.9993 846.995 66.22C847.004 65.4267 847.149 64.7313 847.429 64.134C847.709 63.532 848.112 63.0653 848.64 62.734C849.167 62.398 849.806 62.23 850.558 62.23C851.323 62.23 851.988 62.4167 852.553 62.79C853.122 63.1633 853.512 63.6743 853.722 64.323L852.714 64.645C852.536 64.1923 852.254 63.8423 851.867 63.595C851.484 63.343 851.045 63.217 850.551 63.217C849.995 63.217 849.536 63.3453 849.172 63.602C848.808 63.854 848.537 64.2063 848.36 64.659C848.182 65.1117 848.091 65.632 848.087 66.22C848.096 67.1253 848.306 67.8533 848.717 68.404C849.127 68.95 849.739 69.223 850.551 69.223C851.064 69.223 851.5 69.1063 851.86 68.873C852.224 68.635 852.499 68.2897 852.686 67.837L853.722 68.145C853.442 68.817 853.031 69.3303 852.49 69.685C851.948 70.035 851.302 70.21 850.551 70.21ZM858.118 70.21C857.367 70.21 856.725 70.0397 856.193 69.699C855.661 69.3583 855.253 68.887 854.968 68.285C854.684 67.683 854.541 66.9923 854.541 66.213C854.541 65.4197 854.686 64.7243 854.975 64.127C855.265 63.5297 855.675 63.0653 856.207 62.734C856.744 62.398 857.381 62.23 858.118 62.23C858.874 62.23 859.518 62.4003 860.05 62.741C860.587 63.077 860.995 63.546 861.275 64.148C861.56 64.7453 861.702 65.4337 861.702 66.213C861.702 67.0063 861.56 67.704 861.275 68.306C860.991 68.9033 860.58 69.37 860.043 69.706C859.507 70.042 858.865 70.21 858.118 70.21ZM858.118 69.223C858.958 69.223 859.584 68.9453 859.994 68.39C860.405 67.83 860.61 67.1043 860.61 66.213C860.61 65.2983 860.403 64.5703 859.987 64.029C859.577 63.4877 858.954 63.217 858.118 63.217C857.554 63.217 857.087 63.3453 856.718 63.602C856.354 63.854 856.081 64.2063 855.899 64.659C855.722 65.107 855.633 65.625 855.633 66.213C855.633 67.123 855.843 67.8533 856.263 68.404C856.683 68.95 857.302 69.223 858.118 69.223ZM868.707 70V66.143C868.707 65.723 868.667 65.338 868.588 64.988C868.508 64.6333 868.38 64.3253 868.203 64.064C868.03 63.798 867.804 63.5927 867.524 63.448C867.248 63.3033 866.912 63.231 866.516 63.231C866.152 63.231 865.83 63.294 865.55 63.42C865.274 63.546 865.041 63.728 864.85 63.966C864.663 64.1993 864.521 64.484 864.423 64.82C864.325 65.156 864.276 65.5387 864.276 65.968L863.548 65.807C863.548 65.0323 863.683 64.3813 863.954 63.854C864.224 63.3267 864.598 62.9277 865.074 62.657C865.55 62.3863 866.096 62.251 866.712 62.251C867.164 62.251 867.559 62.321 867.895 62.461C868.235 62.601 868.522 62.79 868.756 63.028C868.994 63.266 869.185 63.539 869.33 63.847C869.474 64.1503 869.579 64.4747 869.645 64.82C869.71 65.1607 869.743 65.5013 869.743 65.842V70H868.707ZM863.24 70V62.44H864.171V64.302H864.276V70H863.24ZM871.755 70V68.803H872.952V70H871.755ZM877.217 70L880.689 59.92H882.054L885.526 70H884.455L881.158 60.494H881.564L878.288 70H877.217ZM878.764 67.557V66.591H883.972V67.557H878.764ZM886.93 70V59.71H887.959V70H886.93ZM890.197 70V59.71H891.226V70H890.197ZM896.127 70V62.44H897.051V64.26L896.869 64.022C896.953 63.798 897.063 63.5927 897.198 63.406C897.334 63.2147 897.481 63.0583 897.639 62.937C897.835 62.7643 898.064 62.6337 898.325 62.545C898.587 62.4517 898.85 62.398 899.116 62.384C899.382 62.3653 899.625 62.384 899.844 62.44V63.406C899.569 63.336 899.268 63.3197 898.941 63.357C898.615 63.3943 898.314 63.525 898.038 63.749C897.786 63.945 897.597 64.1807 897.471 64.456C897.345 64.7267 897.261 65.016 897.219 65.324C897.177 65.6273 897.156 65.9283 897.156 66.227V70H896.127ZM901.312 61.005V59.85H902.341V61.005H901.312ZM901.312 70V62.44H902.341V70H901.312ZM907.443 73.57C907.056 73.57 906.673 73.5117 906.295 73.395C905.922 73.283 905.576 73.1033 905.259 72.856C904.942 72.6133 904.676 72.296 904.461 71.904L905.392 71.386C905.602 71.806 905.896 72.107 906.274 72.289C906.657 72.4757 907.046 72.569 907.443 72.569C907.989 72.569 908.43 72.4663 908.766 72.261C909.107 72.0603 909.354 71.7617 909.508 71.365C909.662 70.9683 909.737 70.4737 909.732 69.881V67.865H909.851V62.44H910.768V69.895C910.768 70.1097 910.761 70.315 910.747 70.511C910.738 70.7117 910.717 70.9077 910.684 71.099C910.595 71.6637 910.411 72.128 910.131 72.492C909.856 72.856 909.492 73.1267 909.039 73.304C908.591 73.4813 908.059 73.57 907.443 73.57ZM907.373 70.21C906.668 70.21 906.066 70.035 905.567 69.685C905.068 69.3303 904.685 68.852 904.419 68.25C904.153 67.648 904.02 66.969 904.02 66.213C904.02 65.4617 904.151 64.785 904.412 64.183C904.678 63.581 905.058 63.105 905.553 62.755C906.048 62.405 906.64 62.23 907.331 62.23C908.04 62.23 908.638 62.4027 909.123 62.748C909.608 63.0933 909.975 63.567 910.222 64.169C910.474 64.7663 910.6 65.4477 910.6 66.213C910.6 66.9643 910.476 67.6433 910.229 68.25C909.982 68.852 909.618 69.3303 909.137 69.685C908.656 70.035 908.068 70.21 907.373 70.21ZM907.478 69.251C908.015 69.251 908.458 69.1203 908.808 68.859C909.158 68.5977 909.419 68.2383 909.592 67.781C909.765 67.319 909.851 66.7963 909.851 66.213C909.851 65.6203 909.765 65.0977 909.592 64.645C909.419 64.1877 909.158 63.8307 908.808 63.574C908.463 63.3173 908.026 63.189 907.499 63.189C906.958 63.189 906.51 63.322 906.155 63.588C905.8 63.854 905.537 64.2157 905.364 64.673C905.196 65.1303 905.112 65.6437 905.112 66.213C905.112 66.787 905.198 67.305 905.371 67.767C905.548 68.2243 905.812 68.586 906.162 68.852C906.512 69.118 906.951 69.251 907.478 69.251ZM918.185 70V66.143C918.185 65.723 918.145 65.338 918.066 64.988C917.987 64.6333 917.858 64.3253 917.681 64.064C917.508 63.798 917.282 63.5927 917.002 63.448C916.727 63.3033 916.391 63.231 915.994 63.231C915.63 63.231 915.308 63.294 915.028 63.42C914.753 63.546 914.519 63.728 914.328 63.966C914.141 64.1993 913.999 64.484 913.901 64.82C913.803 65.156 913.754 65.5387 913.754 65.968L913.026 65.807C913.026 65.0323 913.161 64.3813 913.432 63.854C913.703 63.3267 914.076 62.9277 914.552 62.657C915.028 62.3863 915.574 62.251 916.19 62.251C916.643 62.251 917.037 62.321 917.373 62.461C917.714 62.601 918.001 62.79 918.234 63.028C918.472 63.266 918.663 63.539 918.808 63.847C918.953 64.1503 919.058 64.4747 919.123 64.82C919.188 65.1607 919.221 65.5013 919.221 65.842V70H918.185ZM912.718 70V59.92H913.649V65.611H913.754V70H912.718ZM925.154 70C924.729 70.0887 924.309 70.1237 923.894 70.105C923.483 70.0863 923.114 69.9977 922.788 69.839C922.466 69.6803 922.221 69.433 922.053 69.097C921.917 68.817 921.843 68.5347 921.829 68.25C921.819 67.9607 921.815 67.6317 921.815 67.263V60.34H922.837V67.221C922.837 67.5383 922.839 67.8043 922.844 68.019C922.853 68.229 922.902 68.4157 922.991 68.579C923.159 68.8917 923.425 69.0783 923.789 69.139C924.157 69.1997 924.612 69.1857 925.154 69.097V70ZM920.198 63.322V62.44H925.154V63.322H920.198ZM929.464 70.203C928.577 70.203 927.847 70.0117 927.273 69.629C926.704 69.2463 926.354 68.7143 926.223 68.033L927.273 67.858C927.385 68.2873 927.639 68.6303 928.036 68.887C928.437 69.139 928.932 69.265 929.52 69.265C930.094 69.265 930.547 69.146 930.878 68.908C931.209 68.6653 931.375 68.3363 931.375 67.921C931.375 67.6877 931.321 67.4987 931.214 67.354C931.111 67.2047 930.899 67.067 930.577 66.941C930.255 66.815 929.774 66.6657 929.135 66.493C928.449 66.3063 927.912 66.1197 927.525 65.933C927.138 65.7463 926.862 65.5317 926.699 65.289C926.536 65.0417 926.454 64.7407 926.454 64.386C926.454 63.9567 926.575 63.581 926.818 63.259C927.061 62.9323 927.397 62.6803 927.826 62.503C928.255 62.321 928.755 62.23 929.324 62.23C929.893 62.23 930.402 62.3233 930.85 62.51C931.303 62.692 931.667 62.9487 931.942 63.28C932.217 63.6113 932.381 63.9963 932.432 64.435L931.382 64.624C931.312 64.1807 931.09 63.8307 930.717 63.574C930.348 63.3127 929.879 63.1773 929.31 63.168C928.773 63.154 928.337 63.2567 928.001 63.476C927.665 63.6907 927.497 63.9777 927.497 64.337C927.497 64.5377 927.558 64.7103 927.679 64.855C927.8 64.995 928.02 65.128 928.337 65.254C928.659 65.38 929.116 65.5177 929.709 65.667C930.404 65.8443 930.95 66.031 931.347 66.227C931.744 66.423 932.026 66.654 932.194 66.92C932.362 67.186 932.446 67.515 932.446 67.907C932.446 68.621 932.18 69.1833 931.648 69.594C931.121 70 930.393 70.203 929.464 70.203ZM936.801 70V62.44H937.725V64.26L937.543 64.022C937.627 63.798 937.737 63.5927 937.872 63.406C938.008 63.2147 938.155 63.0583 938.313 62.937C938.509 62.7643 938.738 62.6337 938.999 62.545C939.261 62.4517 939.524 62.398 939.79 62.384C940.056 62.3653 940.299 62.384 940.518 62.44V63.406C940.243 63.336 939.942 63.3197 939.615 63.357C939.289 63.3943 938.988 63.525 938.712 63.749C938.46 63.945 938.271 64.1807 938.145 64.456C938.019 64.7267 937.935 65.016 937.893 65.324C937.851 65.6273 937.83 65.9283 937.83 66.227V70H936.801ZM944.908 70.21C944.171 70.21 943.532 70.0467 942.99 69.72C942.454 69.3933 942.036 68.9337 941.737 68.341C941.439 67.7483 941.289 67.053 941.289 66.255C941.289 65.429 941.436 64.715 941.73 64.113C942.024 63.511 942.437 63.0467 942.969 62.72C943.506 62.3933 944.138 62.23 944.866 62.23C945.613 62.23 946.25 62.4027 946.777 62.748C947.305 63.0887 947.704 63.5787 947.974 64.218C948.245 64.8573 948.369 65.6203 948.345 66.507H947.295V66.143C947.277 65.163 947.064 64.4233 946.658 63.924C946.257 63.4247 945.669 63.175 944.894 63.175C944.082 63.175 943.459 63.4387 943.025 63.966C942.596 64.4933 942.381 65.2447 942.381 66.22C942.381 67.172 942.596 67.9117 943.025 68.439C943.459 68.9617 944.073 69.223 944.866 69.223C945.408 69.223 945.879 69.0993 946.28 68.852C946.686 68.6 947.006 68.2383 947.239 67.767L948.198 68.138C947.9 68.796 947.459 69.307 946.875 69.671C946.297 70.0303 945.641 70.21 944.908 70.21ZM942.017 66.507V65.646H947.792V66.507H942.017ZM952.72 70.203C951.833 70.203 951.103 70.0117 950.529 69.629C949.96 69.2463 949.61 68.7143 949.479 68.033L950.529 67.858C950.641 68.2873 950.895 68.6303 951.292 68.887C951.693 69.139 952.188 69.265 952.776 69.265C953.35 69.265 953.803 69.146 954.134 68.908C954.465 68.6653 954.631 68.3363 954.631 67.921C954.631 67.6877 954.577 67.4987 954.47 67.354C954.367 67.2047 954.155 67.067 953.833 66.941C953.511 66.815 953.03 66.6657 952.391 66.493C951.705 66.3063 951.168 66.1197 950.781 65.933C950.394 65.7463 950.118 65.5317 949.955 65.289C949.792 65.0417 949.71 64.7407 949.71 64.386C949.71 63.9567 949.831 63.581 950.074 63.259C950.317 62.9323 950.653 62.6803 951.082 62.503C951.511 62.321 952.011 62.23 952.58 62.23C953.149 62.23 953.658 62.3233 954.106 62.51C954.559 62.692 954.923 62.9487 955.198 63.28C955.473 63.6113 955.637 63.9963 955.688 64.435L954.638 64.624C954.568 64.1807 954.346 63.8307 953.973 63.574C953.604 63.3127 953.135 63.1773 952.566 63.168C952.029 63.154 951.593 63.2567 951.257 63.476C950.921 63.6907 950.753 63.9777 950.753 64.337C950.753 64.5377 950.814 64.7103 950.935 64.855C951.056 64.995 951.276 65.128 951.593 65.254C951.915 65.38 952.372 65.5177 952.965 65.667C953.66 65.8443 954.206 66.031 954.603 66.227C955 66.423 955.282 66.654 955.45 66.92C955.618 67.186 955.702 67.515 955.702 67.907C955.702 68.621 955.436 69.1833 954.904 69.594C954.377 70 953.649 70.203 952.72 70.203ZM960.453 70.21C959.716 70.21 959.077 70.0467 958.535 69.72C957.999 69.3933 957.581 68.9337 957.282 68.341C956.984 67.7483 956.834 67.053 956.834 66.255C956.834 65.429 956.981 64.715 957.275 64.113C957.569 63.511 957.982 63.0467 958.514 62.72C959.051 62.3933 959.683 62.23 960.411 62.23C961.158 62.23 961.795 62.4027 962.322 62.748C962.85 63.0887 963.249 63.5787 963.519 64.218C963.79 64.8573 963.914 65.6203 963.89 66.507H962.84V66.143C962.822 65.163 962.609 64.4233 962.203 63.924C961.802 63.4247 961.214 63.175 960.439 63.175C959.627 63.175 959.004 63.4387 958.57 63.966C958.141 64.4933 957.926 65.2447 957.926 66.22C957.926 67.172 958.141 67.9117 958.57 68.439C959.004 68.9617 959.618 69.223 960.411 69.223C960.953 69.223 961.424 69.0993 961.825 68.852C962.231 68.6 962.551 68.2383 962.784 67.767L963.743 68.138C963.445 68.796 963.004 69.307 962.42 69.671C961.842 70.0303 961.186 70.21 960.453 70.21ZM957.562 66.507V65.646H963.337V66.507H957.562ZM965.444 70V62.44H966.368V64.26L966.186 64.022C966.27 63.798 966.38 63.5927 966.515 63.406C966.65 63.2147 966.797 63.0583 966.956 62.937C967.152 62.7643 967.381 62.6337 967.642 62.545C967.903 62.4517 968.167 62.398 968.433 62.384C968.699 62.3653 968.942 62.384 969.161 62.44V63.406C968.886 63.336 968.585 63.3197 968.258 63.357C967.931 63.3943 967.63 63.525 967.355 63.749C967.103 63.945 966.914 64.1807 966.788 64.456C966.662 64.7267 966.578 65.016 966.536 65.324C966.494 65.6273 966.473 65.9283 966.473 66.227V70H965.444ZM972.533 70L969.789 62.44H970.832L973.065 68.656L975.284 62.44H976.341L973.597 70H972.533ZM980.524 70.21C979.786 70.21 979.147 70.0467 978.606 69.72C978.069 69.3933 977.651 68.9337 977.353 68.341C977.054 67.7483 976.905 67.053 976.905 66.255C976.905 65.429 977.052 64.715 977.346 64.113C977.64 63.511 978.053 63.0467 978.585 62.72C979.121 62.3933 979.754 62.23 980.482 62.23C981.228 62.23 981.865 62.4027 982.393 62.748C982.92 63.0887 983.319 63.5787 983.59 64.218C983.86 64.8573 983.984 65.6203 983.961 66.507H982.911V66.143C982.892 65.163 982.68 64.4233 982.274 63.924C981.872 63.4247 981.284 63.175 980.51 63.175C979.698 63.175 979.075 63.4387 978.641 63.966C978.211 64.4933 977.997 65.2447 977.997 66.22C977.997 67.172 978.211 67.9117 978.641 68.439C979.075 68.9617 979.688 69.223 980.482 69.223C981.023 69.223 981.494 69.0993 981.896 68.852C982.302 68.6 982.621 68.2383 982.855 67.767L983.814 68.138C983.515 68.796 983.074 69.307 982.491 69.671C981.912 70.0303 981.256 70.21 980.524 70.21ZM977.633 66.507V65.646H983.408V66.507H977.633ZM988.447 70.21C987.743 70.21 987.141 70.035 986.641 69.685C986.142 69.3303 985.759 68.852 985.493 68.25C985.227 67.648 985.094 66.969 985.094 66.213C985.094 65.4617 985.225 64.785 985.486 64.183C985.752 63.581 986.133 63.105 986.627 62.755C987.122 62.405 987.715 62.23 988.405 62.23C989.115 62.23 989.712 62.4027 990.197 62.748C990.683 63.0933 991.049 63.567 991.296 64.169C991.548 64.7663 991.674 65.4477 991.674 66.213C991.674 66.9643 991.551 67.6433 991.303 68.25C991.056 68.852 990.692 69.3303 990.211 69.685C989.731 70.035 989.143 70.21 988.447 70.21ZM988.552 69.251C989.089 69.251 989.532 69.1203 989.882 68.859C990.232 68.5977 990.494 68.2383 990.666 67.781C990.839 67.319 990.925 66.7963 990.925 66.213C990.925 65.6203 990.839 65.0977 990.666 64.645C990.494 64.1877 990.232 63.8307 989.882 63.574C989.537 63.3173 989.101 63.189 988.573 63.189C988.032 63.189 987.584 63.322 987.229 63.588C986.875 63.854 986.611 64.2157 986.438 64.673C986.27 65.1303 986.186 65.6437 986.186 66.213C986.186 66.787 986.273 67.305 986.445 67.767C986.623 68.2243 986.886 68.586 987.236 68.852C987.586 69.118 988.025 69.251 988.552 69.251ZM990.925 70V64.309H990.813V59.92H991.849V70H990.925ZM994.009 70V68.803H995.206V70H994.009ZM1004.25 70.21C1003.25 70.21 1002.4 69.9883 1001.71 69.545C1001.02 69.097 1000.5 68.4787 1000.14 67.69C999.788 66.9013 999.61 65.9913 999.61 64.96C999.61 63.9287 999.788 63.0187 1000.14 62.23C1000.5 61.4413 1001.02 60.8253 1001.71 60.382C1002.4 59.934 1003.25 59.71 1004.25 59.71C1005.42 59.71 1006.38 60.011 1007.12 60.613C1007.86 61.2103 1008.37 62.013 1008.65 63.021L1007.6 63.294C1007.38 62.496 1007 61.8637 1006.44 61.397C1005.89 60.9303 1005.16 60.697 1004.25 60.697C1003.46 60.697 1002.81 60.8767 1002.28 61.236C1001.76 61.5953 1001.37 62.097 1001.1 62.741C1000.84 63.3803 1000.7 64.12 1000.7 64.96C1000.69 65.8 1000.82 66.5397 1001.08 67.179C1001.35 67.8183 1001.74 68.32 1002.27 68.684C1002.8 69.0433 1003.46 69.223 1004.25 69.223C1005.16 69.223 1005.89 68.9897 1006.44 68.523C1007 68.0517 1007.38 67.4193 1007.6 66.626L1008.65 66.899C1008.37 67.907 1007.86 68.712 1007.12 69.314C1006.38 69.9113 1005.42 70.21 1004.25 70.21ZM1010.19 70V62.44H1011.12V64.26L1010.93 64.022C1011.02 63.798 1011.13 63.5927 1011.26 63.406C1011.4 63.2147 1011.55 63.0583 1011.7 62.937C1011.9 62.7643 1012.13 62.6337 1012.39 62.545C1012.65 62.4517 1012.91 62.398 1013.18 62.384C1013.45 62.3653 1013.69 62.384 1013.91 62.44V63.406C1013.63 63.336 1013.33 63.3197 1013.01 63.357C1012.68 63.3943 1012.38 63.525 1012.1 63.749C1011.85 63.945 1011.66 64.1807 1011.54 64.456C1011.41 64.7267 1011.33 65.016 1011.28 65.324C1011.24 65.6273 1011.22 65.9283 1011.22 66.227V70H1010.19ZM1018.3 70.21C1017.56 70.21 1016.92 70.0467 1016.38 69.72C1015.84 69.3933 1015.43 68.9337 1015.13 68.341C1014.83 67.7483 1014.68 67.053 1014.68 66.255C1014.68 65.429 1014.83 64.715 1015.12 64.113C1015.42 63.511 1015.83 63.0467 1016.36 62.72C1016.9 62.3933 1017.53 62.23 1018.26 62.23C1019 62.23 1019.64 62.4027 1020.17 62.748C1020.7 63.0887 1021.09 63.5787 1021.37 64.218C1021.64 64.8573 1021.76 65.6203 1021.74 66.507H1020.69V66.143C1020.67 65.163 1020.46 64.4233 1020.05 63.924C1019.65 63.4247 1019.06 63.175 1018.29 63.175C1017.47 63.175 1016.85 63.4387 1016.42 63.966C1015.99 64.4933 1015.77 65.2447 1015.77 66.22C1015.77 67.172 1015.99 67.9117 1016.42 68.439C1016.85 68.9617 1017.46 69.223 1018.26 69.223C1018.8 69.223 1019.27 69.0993 1019.67 68.852C1020.08 68.6 1020.4 68.2383 1020.63 67.767L1021.59 68.138C1021.29 68.796 1020.85 69.307 1020.27 69.671C1019.69 70.0303 1019.03 70.21 1018.3 70.21ZM1015.41 66.507V65.646H1021.18V66.507H1015.41ZM1026.22 70.21C1025.52 70.21 1024.92 70.035 1024.42 69.685C1023.92 69.3303 1023.53 68.852 1023.27 68.25C1023 67.648 1022.87 66.969 1022.87 66.213C1022.87 65.4617 1023 64.785 1023.26 64.183C1023.53 63.581 1023.91 63.105 1024.4 62.755C1024.9 62.405 1025.49 62.23 1026.18 62.23C1026.89 62.23 1027.49 62.4027 1027.97 62.748C1028.46 63.0933 1028.82 63.567 1029.07 64.169C1029.32 64.7663 1029.45 65.4477 1029.45 66.213C1029.45 66.9643 1029.33 67.6433 1029.08 68.25C1028.83 68.852 1028.47 69.3303 1027.99 69.685C1027.51 70.035 1026.92 70.21 1026.22 70.21ZM1026.33 69.251C1026.86 69.251 1027.31 69.1203 1027.66 68.859C1028.01 68.5977 1028.27 68.2383 1028.44 67.781C1028.61 67.319 1028.7 66.7963 1028.7 66.213C1028.7 65.6203 1028.61 65.0977 1028.44 64.645C1028.27 64.1877 1028.01 63.8307 1027.66 63.574C1027.31 63.3173 1026.88 63.189 1026.35 63.189C1025.81 63.189 1025.36 63.322 1025 63.588C1024.65 63.854 1024.39 64.2157 1024.21 64.673C1024.05 65.1303 1023.96 65.6437 1023.96 66.213C1023.96 66.787 1024.05 67.305 1024.22 67.767C1024.4 68.2243 1024.66 68.586 1025.01 68.852C1025.36 69.118 1025.8 69.251 1026.33 69.251ZM1028.7 70V64.309H1028.59V59.92H1029.62V70H1028.7ZM1031.73 61.005V59.85H1032.76V61.005H1031.73ZM1031.73 70V62.44H1032.76V70H1031.73ZM1038.97 70C1038.55 70.0887 1038.13 70.1237 1037.71 70.105C1037.3 70.0863 1036.93 69.9977 1036.61 69.839C1036.28 69.6803 1036.04 69.433 1035.87 69.097C1035.74 68.817 1035.66 68.5347 1035.65 68.25C1035.64 67.9607 1035.63 67.6317 1035.63 67.263V60.34H1036.65V67.221C1036.65 67.5383 1036.66 67.8043 1036.66 68.019C1036.67 68.229 1036.72 68.4157 1036.81 68.579C1036.98 68.8917 1037.24 69.0783 1037.61 69.139C1037.98 69.1997 1038.43 69.1857 1038.97 69.097V70ZM1034.02 63.322V62.44H1038.97V63.322H1034.02ZM1043.26 70V59.92H1044.21L1048.17 68.397L1052.11 59.92H1053.07V69.993H1052.09V62.216L1048.5 70H1047.84L1044.25 62.216V70H1043.26ZM1057.2 70.21C1056.63 70.21 1056.15 70.1073 1055.76 69.902C1055.38 69.6967 1055.09 69.4237 1054.9 69.083C1054.71 68.7423 1054.62 68.3713 1054.62 67.97C1054.62 67.5593 1054.7 67.2093 1054.86 66.92C1055.03 66.626 1055.25 66.3857 1055.54 66.199C1055.83 66.0123 1056.16 65.87 1056.54 65.772C1056.92 65.6787 1057.35 65.597 1057.81 65.527C1058.27 65.4523 1058.73 65.3893 1059.17 65.338C1059.62 65.282 1060.01 65.2283 1060.35 65.177L1059.98 65.401C1060 64.6543 1059.85 64.1013 1059.55 63.742C1059.25 63.3827 1058.72 63.203 1057.97 63.203C1057.45 63.203 1057.01 63.3197 1056.65 63.553C1056.3 63.7863 1056.05 64.155 1055.9 64.659L1054.9 64.365C1055.08 63.6883 1055.42 63.1633 1055.95 62.79C1056.47 62.4167 1057.15 62.23 1057.98 62.23C1058.67 62.23 1059.26 62.3607 1059.74 62.622C1060.22 62.8787 1060.57 63.252 1060.77 63.742C1060.86 63.9613 1060.92 64.2063 1060.95 64.477C1060.98 64.7477 1060.99 65.023 1060.99 65.303V70H1060.08V68.103L1060.34 68.215C1060.08 68.8637 1059.69 69.3583 1059.14 69.699C1058.6 70.0397 1057.95 70.21 1057.2 70.21ZM1057.32 69.321C1057.8 69.321 1058.22 69.2347 1058.58 69.062C1058.94 68.8893 1059.23 68.6537 1059.45 68.355C1059.66 68.0517 1059.81 67.711 1059.87 67.333C1059.93 67.0903 1059.96 66.8243 1059.96 66.535C1059.97 66.241 1059.97 66.0217 1059.97 65.877L1060.36 66.08C1060.01 66.1267 1059.63 66.1733 1059.22 66.22C1058.82 66.2667 1058.41 66.3203 1058.02 66.381C1057.63 66.4417 1057.27 66.514 1056.95 66.598C1056.74 66.6587 1056.53 66.745 1056.33 66.857C1056.13 66.9643 1055.96 67.109 1055.83 67.291C1055.71 67.473 1055.64 67.6993 1055.64 67.97C1055.64 68.1893 1055.7 68.4017 1055.81 68.607C1055.92 68.8123 1056.09 68.9827 1056.34 69.118C1056.58 69.2533 1056.91 69.321 1057.32 69.321ZM1065.75 70.21C1065.04 70.21 1064.44 70.035 1063.94 69.685C1063.44 69.3303 1063.06 68.852 1062.79 68.25C1062.53 67.648 1062.39 66.969 1062.39 66.213C1062.39 65.4617 1062.53 64.785 1062.79 64.183C1063.05 63.581 1063.43 63.105 1063.93 62.755C1064.42 62.405 1065.02 62.23 1065.71 62.23C1066.42 62.23 1067.01 62.4027 1067.5 62.748C1067.98 63.0933 1068.35 63.567 1068.6 64.169C1068.85 64.7663 1068.97 65.4477 1068.97 66.213C1068.97 66.9643 1068.85 67.6433 1068.6 68.25C1068.36 68.852 1067.99 69.3303 1067.51 69.685C1067.03 70.035 1066.44 70.21 1065.75 70.21ZM1065.85 69.251C1066.39 69.251 1066.83 69.1203 1067.18 68.859C1067.53 68.5977 1067.79 68.2383 1067.97 67.781C1068.14 67.319 1068.23 66.7963 1068.23 66.213C1068.23 65.6203 1068.14 65.0977 1067.97 64.645C1067.79 64.1877 1067.53 63.8307 1067.18 63.574C1066.84 63.3173 1066.4 63.189 1065.87 63.189C1065.33 63.189 1064.88 63.322 1064.53 63.588C1064.18 63.854 1063.91 64.2157 1063.74 64.673C1063.57 65.1303 1063.49 65.6437 1063.49 66.213C1063.49 66.787 1063.57 67.305 1063.75 67.767C1063.92 68.2243 1064.19 68.586 1064.54 68.852C1064.89 69.118 1065.33 69.251 1065.85 69.251ZM1068.23 70V64.309H1068.11V59.92H1069.15V70H1068.23ZM1071.11 70V62.44H1072.04V64.26L1071.86 64.022C1071.94 63.798 1072.05 63.5927 1072.18 63.406C1072.32 63.2147 1072.47 63.0583 1072.63 62.937C1072.82 62.7643 1073.05 62.6337 1073.31 62.545C1073.57 62.4517 1073.84 62.398 1074.1 62.384C1074.37 62.3653 1074.61 62.384 1074.83 62.44V63.406C1074.56 63.336 1074.25 63.3197 1073.93 63.357C1073.6 63.3943 1073.3 63.525 1073.02 63.749C1072.77 63.945 1072.58 64.1807 1072.46 64.456C1072.33 64.7267 1072.25 65.016 1072.21 65.324C1072.16 65.6273 1072.14 65.9283 1072.14 66.227V70H1071.11ZM1078.03 70.21C1077.47 70.21 1076.99 70.1073 1076.6 69.902C1076.22 69.6967 1075.93 69.4237 1075.74 69.083C1075.55 68.7423 1075.45 68.3713 1075.45 67.97C1075.45 67.5593 1075.53 67.2093 1075.7 66.92C1075.86 66.626 1076.09 66.3857 1076.38 66.199C1076.66 66.0123 1077 65.87 1077.38 65.772C1077.76 65.6787 1078.18 65.597 1078.64 65.527C1079.11 65.4523 1079.57 65.3893 1080.01 65.338C1080.46 65.282 1080.85 65.2283 1081.18 65.177L1080.82 65.401C1080.83 64.6543 1080.69 64.1013 1080.39 63.742C1080.08 63.3827 1079.56 63.203 1078.8 63.203C1078.29 63.203 1077.85 63.3197 1077.49 63.553C1077.13 63.7863 1076.88 64.155 1076.74 64.659L1075.74 64.365C1075.91 63.6883 1076.26 63.1633 1076.78 62.79C1077.3 62.4167 1077.98 62.23 1078.82 62.23C1079.51 62.23 1080.09 62.3607 1080.58 62.622C1081.06 62.8787 1081.4 63.252 1081.6 63.742C1081.7 63.9613 1081.76 64.2063 1081.79 64.477C1081.81 64.7477 1081.83 65.023 1081.83 65.303V70H1080.91V68.103L1081.18 68.215C1080.92 68.8637 1080.52 69.3583 1079.98 69.699C1079.44 70.0397 1078.79 70.21 1078.03 70.21ZM1078.15 69.321C1078.63 69.321 1079.05 69.2347 1079.41 69.062C1079.77 68.8893 1080.06 68.6537 1080.28 68.355C1080.5 68.0517 1080.64 67.711 1080.71 67.333C1080.76 67.0903 1080.79 66.8243 1080.8 66.535C1080.8 66.241 1080.81 66.0217 1080.81 65.877L1081.2 66.08C1080.85 66.1267 1080.47 66.1733 1080.06 66.22C1079.65 66.2667 1079.25 66.3203 1078.85 66.381C1078.46 66.4417 1078.11 66.514 1077.79 66.598C1077.57 66.6587 1077.37 66.745 1077.17 66.857C1076.97 66.9643 1076.8 67.109 1076.67 67.291C1076.54 67.473 1076.48 67.6993 1076.48 67.97C1076.48 68.1893 1076.53 68.4017 1076.64 68.607C1076.75 68.8123 1076.93 68.9827 1077.17 69.118C1077.42 69.2533 1077.75 69.321 1078.15 69.321ZM1086.47 70.203C1085.59 70.203 1084.85 70.0117 1084.28 69.629C1083.71 69.2463 1083.36 68.7143 1083.23 68.033L1084.28 67.858C1084.39 68.2873 1084.65 68.6303 1085.04 68.887C1085.45 69.139 1085.94 69.265 1086.53 69.265C1087.1 69.265 1087.55 69.146 1087.89 68.908C1088.22 68.6653 1088.38 68.3363 1088.38 67.921C1088.38 67.6877 1088.33 67.4987 1088.22 67.354C1088.12 67.2047 1087.91 67.067 1087.58 66.941C1087.26 66.815 1086.78 66.6657 1086.14 66.493C1085.46 66.3063 1084.92 66.1197 1084.53 65.933C1084.15 65.7463 1083.87 65.5317 1083.71 65.289C1083.54 65.0417 1083.46 64.7407 1083.46 64.386C1083.46 63.9567 1083.58 63.581 1083.83 63.259C1084.07 62.9323 1084.4 62.6803 1084.83 62.503C1085.26 62.321 1085.76 62.23 1086.33 62.23C1086.9 62.23 1087.41 62.3233 1087.86 62.51C1088.31 62.692 1088.67 62.9487 1088.95 63.28C1089.23 63.6113 1089.39 63.9963 1089.44 64.435L1088.39 64.624C1088.32 64.1807 1088.1 63.8307 1087.72 63.574C1087.36 63.3127 1086.89 63.1773 1086.32 63.168C1085.78 63.154 1085.34 63.2567 1085.01 63.476C1084.67 63.6907 1084.5 63.9777 1084.5 64.337C1084.5 64.5377 1084.57 64.7103 1084.69 64.855C1084.81 64.995 1085.03 65.128 1085.34 65.254C1085.67 65.38 1086.12 65.5177 1086.72 65.667C1087.41 65.8443 1087.96 66.031 1088.35 66.227C1088.75 66.423 1089.03 66.654 1089.2 66.92C1089.37 67.186 1089.45 67.515 1089.45 67.907C1089.45 68.621 1089.19 69.1833 1088.66 69.594C1088.13 70 1087.4 70.203 1086.47 70.203ZM1092.99 70V60.907H1089.47V59.92H1097.54V60.907H1094.02V70H1092.99ZM1104.12 70V66.143C1104.12 65.723 1104.08 65.338 1104 64.988C1103.92 64.6333 1103.8 64.3253 1103.62 64.064C1103.45 63.798 1103.22 63.5927 1102.94 63.448C1102.66 63.3033 1102.33 63.231 1101.93 63.231C1101.57 63.231 1101.25 63.294 1100.97 63.42C1100.69 63.546 1100.46 63.728 1100.27 63.966C1100.08 64.1993 1099.94 64.484 1099.84 64.82C1099.74 65.156 1099.69 65.5387 1099.69 65.968L1098.96 65.807C1098.96 65.0323 1099.1 64.3813 1099.37 63.854C1099.64 63.3267 1100.01 62.9277 1100.49 62.657C1100.97 62.3863 1101.51 62.251 1102.13 62.251C1102.58 62.251 1102.97 62.321 1103.31 62.461C1103.65 62.601 1103.94 62.79 1104.17 63.028C1104.41 63.266 1104.6 63.539 1104.75 63.847C1104.89 64.1503 1105 64.4747 1105.06 64.82C1105.13 65.1607 1105.16 65.5013 1105.16 65.842V70H1104.12ZM1098.66 70V59.92H1099.59V65.611H1099.69V70H1098.66ZM1110.17 70.21C1109.44 70.21 1108.8 70.0467 1108.26 69.72C1107.72 69.3933 1107.3 68.9337 1107 68.341C1106.7 67.7483 1106.56 67.053 1106.56 66.255C1106.56 65.429 1106.7 64.715 1107 64.113C1107.29 63.511 1107.7 63.0467 1108.24 62.72C1108.77 62.3933 1109.4 62.23 1110.13 62.23C1110.88 62.23 1111.52 62.4027 1112.04 62.748C1112.57 63.0887 1112.97 63.5787 1113.24 64.218C1113.51 64.8573 1113.63 65.6203 1113.61 66.507H1112.56V66.143C1112.54 65.163 1112.33 64.4233 1111.92 63.924C1111.52 63.4247 1110.93 63.175 1110.16 63.175C1109.35 63.175 1108.73 63.4387 1108.29 63.966C1107.86 64.4933 1107.65 65.2447 1107.65 66.22C1107.65 67.172 1107.86 67.9117 1108.29 68.439C1108.73 68.9617 1109.34 69.223 1110.13 69.223C1110.67 69.223 1111.14 69.0993 1111.55 68.852C1111.95 68.6 1112.27 68.2383 1112.51 67.767L1113.46 68.138C1113.17 68.796 1112.72 69.307 1112.14 69.671C1111.56 70.0303 1110.91 70.21 1110.17 70.21ZM1107.28 66.507V65.646H1113.06V66.507H1107.28ZM1123.98 70L1123.98 65.037C1123.98 64.4537 1123.82 63.9963 1123.49 63.665C1123.17 63.329 1122.76 63.161 1122.26 63.161C1121.98 63.161 1121.7 63.2263 1121.43 63.357C1121.16 63.4877 1120.93 63.6977 1120.76 63.987C1120.58 64.2763 1120.5 64.6543 1120.5 65.121L1119.89 64.946C1119.87 64.4047 1119.98 63.931 1120.2 63.525C1120.43 63.119 1120.74 62.804 1121.14 62.58C1121.54 62.3513 1121.99 62.237 1122.5 62.237C1123.26 62.237 1123.87 62.4727 1124.33 62.944C1124.78 63.4107 1125.01 64.043 1125.01 64.841L1125 70H1123.98ZM1114.95 70V62.44H1115.88V64.302H1115.99V70H1114.95ZM1119.47 70L1119.48 65.107C1119.48 64.505 1119.32 64.0313 1119 63.686C1118.68 63.336 1118.26 63.161 1117.74 63.161C1117.22 63.161 1116.79 63.3407 1116.47 63.7C1116.15 64.0547 1115.99 64.5283 1115.99 65.121L1115.37 64.785C1115.37 64.2997 1115.49 63.8657 1115.72 63.483C1115.94 63.0957 1116.26 62.7923 1116.65 62.573C1117.05 62.349 1117.5 62.237 1118 62.237C1118.49 62.237 1118.91 62.3397 1119.29 62.545C1119.66 62.7503 1119.96 63.049 1120.17 63.441C1120.39 63.833 1120.5 64.309 1120.5 64.869L1120.49 70H1119.47ZM1129.98 70.21C1129.25 70.21 1128.61 70.0467 1128.07 69.72C1127.53 69.3933 1127.11 68.9337 1126.81 68.341C1126.51 67.7483 1126.37 67.053 1126.37 66.255C1126.37 65.429 1126.51 64.715 1126.81 64.113C1127.1 63.511 1127.51 63.0467 1128.05 62.72C1128.58 62.3933 1129.21 62.23 1129.94 62.23C1130.69 62.23 1131.33 62.4027 1131.85 62.748C1132.38 63.0887 1132.78 63.5787 1133.05 64.218C1133.32 64.8573 1133.44 65.6203 1133.42 66.507H1132.37V66.143C1132.35 65.163 1132.14 64.4233 1131.73 63.924C1131.33 63.4247 1130.75 63.175 1129.97 63.175C1129.16 63.175 1128.54 63.4387 1128.1 63.966C1127.67 64.4933 1127.46 65.2447 1127.46 66.22C1127.46 67.172 1127.67 67.9117 1128.1 68.439C1128.54 68.9617 1129.15 69.223 1129.94 69.223C1130.48 69.223 1130.96 69.0993 1131.36 68.852C1131.76 68.6 1132.08 68.2383 1132.32 67.767L1133.27 68.138C1132.98 68.796 1132.53 69.307 1131.95 69.671C1131.37 70.0303 1130.72 70.21 1129.98 70.21ZM1127.09 66.507V65.646H1132.87V66.507H1127.09ZM1137.8 70.203C1136.91 70.203 1136.18 70.0117 1135.61 69.629C1135.04 69.2463 1134.69 68.7143 1134.56 68.033L1135.61 67.858C1135.72 68.2873 1135.97 68.6303 1136.37 68.887C1136.77 69.139 1137.26 69.265 1137.85 69.265C1138.43 69.265 1138.88 69.146 1139.21 68.908C1139.54 68.6653 1139.71 68.3363 1139.71 67.921C1139.71 67.6877 1139.65 67.4987 1139.55 67.354C1139.44 67.2047 1139.23 67.067 1138.91 66.941C1138.59 66.815 1138.11 66.6657 1137.47 66.493C1136.78 66.3063 1136.24 66.1197 1135.86 65.933C1135.47 65.7463 1135.19 65.5317 1135.03 65.289C1134.87 65.0417 1134.79 64.7407 1134.79 64.386C1134.79 63.9567 1134.91 63.581 1135.15 63.259C1135.39 62.9323 1135.73 62.6803 1136.16 62.503C1136.59 62.321 1137.09 62.23 1137.66 62.23C1138.23 62.23 1138.73 62.3233 1139.18 62.51C1139.63 62.692 1140 62.9487 1140.27 63.28C1140.55 63.6113 1140.71 63.9963 1140.76 64.435L1139.71 64.624C1139.64 64.1807 1139.42 63.8307 1139.05 63.574C1138.68 63.3127 1138.21 63.1773 1137.64 63.168C1137.11 63.154 1136.67 63.2567 1136.33 63.476C1136 63.6907 1135.83 63.9777 1135.83 64.337C1135.83 64.5377 1135.89 64.7103 1136.01 64.855C1136.13 64.995 1136.35 65.128 1136.67 65.254C1136.99 65.38 1137.45 65.5177 1138.04 65.667C1138.74 65.8443 1139.28 66.031 1139.68 66.227C1140.08 66.423 1140.36 66.654 1140.53 66.92C1140.69 67.186 1140.78 67.515 1140.78 67.907C1140.78 68.621 1140.51 69.1833 1139.98 69.594C1139.45 70 1138.72 70.203 1137.8 70.203Z" fill="#9397AD"/>
</svg>
